<?xml version="1.0" encoding="UTF-8"?>
<svg version="1.1" xmlns="http://www.w3.org/2000/svg" width="500" height="500">
<path d="M0 0 C1.98444664 -0.01167225 3.96885841 -0.0323549 5.953125 -0.06152344 C8.88228774 -0.10425183 11.81055463 -0.12035339 14.73999023 -0.13061523 C15.61511765 -0.14812332 16.49024506 -0.16563141 17.39189148 -0.18367004 C23.6769929 -0.16166755 28.23596595 1.35445378 33.75952148 4.29516602 C34.72011475 4.79693359 35.68070801 5.29870117 36.67041016 5.81567383 C37.49774658 6.2884375 38.32508301 6.76120117 39.17749023 7.24829102 C40.11536377 7.78147949 41.0532373 8.31466797 42.01953125 8.86401367 C42.98560303 9.41879395 43.9516748 9.97357422 44.94702148 10.54516602 C45.95498779 11.11928223 46.9629541 11.69339844 48.00146484 12.28491211 C50.92346819 13.95041422 53.84220706 15.62146697 56.75952148 17.29516602 C57.52748047 17.73570313 58.29543945 18.17624023 59.08666992 18.63012695 C60.11195801 19.21842285 60.11195801 19.21842285 61.15795898 19.81860352 C62.10505737 20.36145996 62.10505737 20.36145996 63.07128906 20.9152832 C64.68901475 21.84382301 66.30445099 22.7763485 67.91967773 23.70922852 C73.51623861 27.10499154 73.51623861 27.10499154 79.75952148 28.29516602 C81.49152303 26.59156522 81.49152303 26.59156522 83.13452148 24.42016602 C87.77369674 18.95947014 87.77369674 18.95947014 91.75952148 18.29516602 C102.53067165 17.99948738 110.25577888 24.607845 118.76025391 30.35498047 C128.49361783 36.8723534 138.74319527 42.34801474 149.25952148 47.48266602 C167.72603765 56.57339804 172.92504237 68.98819603 179.32592773 87.76391602 C180.24631444 90.48099165 181.16064632 93.20005544 182.07202148 95.92016602 C182.40925232 96.92566498 182.40925232 96.92566498 182.7532959 97.95147705 C183.40134952 99.89024437 184.04435268 101.83060249 184.68530273 103.77172852 C185.06082275 104.90690918 185.43634277 106.04208984 185.82324219 107.21166992 C188.56232113 116.23241751 189.13010073 124.70796335 184.92749023 133.32250977 C183.75952148 135.29516602 183.75952148 135.29516602 182.00952148 137.06469727 C180.39378765 139.40601081 180.39378765 139.40601081 181.34155273 142.90454102 C181.73307991 144.29014906 182.14400183 145.67039245 182.57202148 147.04516602 C184.54135959 153.58063507 185.99472099 159.5895675 183.75952148 166.29516602 C184.74952148 166.37766602 185.73952148 166.46016602 186.75952148 166.54516602 C195.33809048 167.83711918 201.9881212 173.03914434 207.75952148 179.29516602 C209.73772209 182.17604068 211.31177046 185.11866588 212.75952148 188.29516602 C213.17202148 189.18204102 213.58452148 190.06891602 214.00952148 190.98266602 C218.07958235 203.53202035 215.49917993 216.84714569 209.80639648 228.46313477 C205.46457964 236.74499997 200.44727096 243.71808852 193.75952148 250.29516602 C195.7759579 256.83160851 198.31774176 262.97140093 201.19702148 269.17016602 C211.06619371 290.88953412 211.06619371 290.88953412 208.75952148 298.29516602 C205.83355904 302.58505366 202.69844005 306.39269833 197.75952148 308.29516602 C188.1809131 309.62648884 178.15124936 307.0309309 168.75952148 305.29516602 C168.80592773 306.09180664 168.85233398 306.88844727 168.90014648 307.70922852 C169.26513447 318.42423305 169.26513447 318.42423305 164.75952148 323.29516602 C161.26619076 326.98811564 158.16731912 328.11899515 153.21264648 328.45532227 C144.17059453 327.86499722 134.62912249 321.64882022 127.94702148 315.85766602 C125.89300729 314.0351517 125.89300729 314.0351517 123.45874023 314.48266602 C120.28864457 315.4369061 118.12248843 316.86859811 115.38452148 318.73266602 C87.09773393 336.91225429 49.74839159 346.3564377 16.32983398 346.49829102 C15.25941864 346.50399109 14.1890033 346.50969116 13.08615112 346.51556396 C10.82884695 346.52495991 8.57152939 346.53152627 6.31420898 346.53540039 C2.92853607 346.54504069 -0.45651171 346.57609011 -3.84204102 346.60766602 C-17.25539508 346.67325519 -30.06495006 345.83948947 -43.24047852 343.29516602 C-44.29477051 343.09632813 -45.3490625 342.89749023 -46.43530273 342.69262695 C-48.886663 342.19467322 -51.31202346 341.64406942 -53.74047852 341.04516602 C-54.59955811 340.83537109 -55.4586377 340.62557617 -56.34375 340.40942383 C-76.71025659 335.25504089 -97.32452275 327.57165142 -114.70922852 315.63110352 C-117.04792201 314.14021399 -117.04792201 314.14021399 -119.17016602 314.31469727 C-122.26641229 315.78103276 -125.04046012 317.68709713 -127.86547852 319.60766602 C-143.12436536 329.62434534 -143.12436536 329.62434534 -152.13500977 328.02954102 C-157.41301217 326.18860511 -160.4156989 322.66120725 -163.24047852 317.98266602 C-164.47312912 313.43726692 -164.10153204 309.87016124 -163.24047852 305.29516602 C-164.2446582 305.51172852 -165.24883789 305.72829102 -166.28344727 305.95141602 C-188.9700899 310.65828091 -188.9700899 310.65828091 -196.86547852 306.10766602 C-201.18420198 302.85271233 -202.82141351 299.91555072 -204.17797852 294.67016602 C-205.11196603 284.30506548 -197.29154431 272.53666886 -193.07226562 263.45288086 C-192.2486991 261.67507558 -191.43773681 259.89144826 -190.62719727 258.10766602 C-190.14468506 257.06223633 -189.66217285 256.01680664 -189.16503906 254.93969727 C-187.91888882 252.24060365 -187.91888882 252.24060365 -189.24047852 249.29516602 C-190.40011811 248.16963346 -191.55998062 247.04432969 -192.72094727 245.92016602 C-203.41802708 234.48061536 -210.08137323 219.31500004 -210.61547852 203.67016602 C-210.24126652 192.9427556 -206.78481096 184.09203534 -199.35375977 176.32250977 C-193.05857595 170.49730038 -186.82408596 167.01046664 -178.24047852 166.29516602 C-178.57047852 165.30516602 -178.90047852 164.31516602 -179.24047852 163.29516602 C-179.37329102 161.35766602 -179.37329102 161.35766602 -179.36547852 159.29516602 C-179.36805664 158.61454102 -179.37063477 157.93391602 -179.37329102 157.23266602 C-179.24047852 155.29516602 -179.24047852 155.29516602 -178.24047852 152.29516602 C-179.15829102 152.34157227 -180.07610352 152.38797852 -181.02172852 152.43579102 C-195.14556119 152.85119786 -195.14556119 152.85119786 -200.24047852 148.29516602 C-203.66743655 144.17622607 -205.67547193 140.16224764 -205.36547852 134.73266602 C-203.00841307 122.36878635 -191.3001347 114.01765902 -182.24047852 106.29516602 C-181.1527671 105.35560781 -180.06557103 104.41545281 -178.97875977 103.47485352 C-159.09322385 86.29516602 -159.09322385 86.29516602 -156.24047852 86.29516602 C-156.81731513 82.40151885 -158.78869629 80.2832756 -161.24047852 77.29516602 C-163.09037374 71.74548035 -163.20561893 66.26256763 -160.61547852 60.98266602 C-154.63927534 54.22012032 -148.39617966 51.34512527 -140.11547852 47.98266602 C-138.96273437 47.50555176 -137.80999023 47.0284375 -136.62231445 46.53686523 C-133.16645149 45.11102302 -129.70447422 43.70111692 -126.24047852 42.29516602 C-125.26949219 41.89797363 -124.29850586 41.50078125 -123.2980957 41.09155273 C-113.03469755 36.89523333 -102.72532169 32.90584048 -92.24047852 29.29516602 C-92.28688477 28.28196289 -92.33329102 27.26875977 -92.38110352 26.22485352 C-92.41864609 24.8733207 -92.45504358 23.52175573 -92.49047852 22.17016602 C-92.52399414 21.50500977 -92.55750977 20.83985352 -92.59204102 20.15454102 C-92.69301463 15.00488677 -91.44097798 12.26214707 -88.24047852 8.29516602 C-82.60621132 3.09430399 -77.66304773 2.00146251 -70.14282227 1.91625977 C-69.35388077 1.89926529 -68.56493927 1.88227081 -67.75209045 1.86476135 C-65.22746822 1.81185759 -62.70285128 1.77160696 -60.17797852 1.73266602 C-56.89533326 1.67324134 -53.61282035 1.60829001 -50.33032227 1.54125977 C-49.49965744 1.52511124 -48.66899261 1.50896271 -47.81315613 1.49232483 C-42.01519091 1.36784827 -36.23370265 1.10794396 -30.44360352 0.78735352 C-20.29712806 0.23908441 -10.16055157 0.04154084 0 0 Z " fill="#090909" transform="translate(247.240478515625,76.704833984375)"/>
<path d="M0 0 C5.02868412 -0.16035814 10.05638578 -0.27598555 15.08700562 -0.35397339 C16.90570739 -0.38802501 18.72421222 -0.43590622 20.54214478 -0.49880981 C33.35271993 -0.92510527 41.47104171 1.29738646 52.22802734 8.21923828 C54.6087323 9.60180288 57.01153079 10.93962659 59.41552734 12.28173828 C62.68978621 14.15112059 65.9450988 16.04850554 69.17333984 17.99658203 C81.56073414 25.43914454 94.65009217 31.30756782 108.22802734 36.21923828 C107.89802734 35.24986328 107.56802734 34.28048828 107.22802734 33.28173828 C106.00661719 29.00680274 105.61630496 24.63623369 106.22802734 20.21923828 C106.88802734 19.55923828 107.54802734 18.89923828 108.22802734 18.21923828 C112.24270811 18.52805988 114.67114639 19.97112975 117.85302734 22.34423828 C132.71439255 33.06781813 148.97160531 42.33801834 165.79052734 49.64501953 C173.41702686 54.57046713 175.95892935 61.77312081 178.72802734 70.09423828 C179.49729779 72.33521324 180.26682987 74.57609841 181.03662109 76.81689453 C181.5913208 78.45489014 181.5913208 78.45489014 182.15722656 80.12597656 C183.09905603 82.84667409 184.09418966 85.53259405 185.13818359 88.21533203 C191.16895573 103.80854861 191.16895573 103.80854861 189.22802734 112.21923828 C187.5966812 115.30405793 185.59828238 117.68173897 183.22802734 120.21923828 C181.48979056 122.19739527 181.48979056 122.19739527 180.22802734 124.21923828 C180.75497854 126.98489095 180.75497854 126.98489095 182.22802734 130.21923828 C187.05860216 142.28656103 187.05860216 142.28656103 186.22802734 148.21923828 C184.19701359 152.4593092 182.20663154 154.08270372 178.04052734 156.15673828 C175.38023783 157.57036872 175.38023783 157.57036872 173.22802734 159.21923828 C172.38863466 162.47994238 172.38863466 162.47994238 173.22802734 165.21923828 C171.24802734 165.21923828 169.26802734 165.21923828 167.22802734 165.21923828 C167.10041016 164.27564453 167.10041016 164.27564453 166.97021484 163.31298828 C166.4475835 161.09522149 166.4475835 161.09522149 164.54833984 160.31298828 C163.82388672 160.11705078 163.09943359 159.92111328 162.35302734 159.71923828 C152.90616442 157.04587197 143.79265296 153.31124339 134.66552734 149.71923828 C133.70195312 149.34154297 132.73837891 148.96384766 131.74560547 148.57470703 C125.5628437 146.14829614 119.39166774 143.69379704 113.22802734 141.21923828 C116.44280844 140.14764458 117.31097167 140.26581289 120.48193359 141.03955078 C121.75073364 141.3440918 121.75073364 141.3440918 123.04516602 141.65478516 C123.95113525 141.88230469 124.85710449 142.10982422 125.79052734 142.34423828 C126.72421143 142.57433594 127.65789551 142.80443359 128.61987305 143.04150391 C131.49226894 143.7560133 134.36043436 144.48571415 137.22802734 145.21923828 C138.08170898 145.43418945 138.93539063 145.64914063 139.81494141 145.87060547 C155.9162899 149.9552566 155.9162899 149.9552566 163.18505859 154.49658203 C165.28074268 155.45671838 165.28074268 155.45671838 167.68896484 154.54345703 C170.26690155 153.19896389 172.6439591 151.73964334 175.04052734 150.09423828 C175.83072266 149.55541016 176.62091797 149.01658203 177.43505859 148.46142578 C178.02673828 148.05150391 178.61841797 147.64158203 179.22802734 147.21923828 C179.16624468 145.88473271 179.07704669 144.55149854 178.97802734 143.21923828 C178.93162109 142.47673828 178.88521484 141.73423828 178.83740234 140.96923828 C177.9392499 136.9160375 176.83487329 133.50669789 174.22802734 130.21923828 C171.14253828 128.30704004 167.88518493 127.35817238 164.41552734 126.34423828 C163.4179541 126.02600098 162.42038086 125.70776367 161.39257812 125.37988281 C159.19786204 124.68194372 156.99903822 123.99682721 154.796875 123.32275391 C151.03405303 122.15925991 147.29169216 120.93953387 143.55224609 119.70361328 C135.79677251 117.14680505 128.01941279 114.66428749 120.22802734 112.21923828 C119.23496582 111.90680176 118.2419043 111.59436523 117.21875 111.27246094 C103.88061972 107.12478827 90.4148961 104.14700242 76.64697266 101.80273438 C74.40704442 101.42045585 72.1692497 101.02540632 69.93408203 100.61621094 C35.99965681 94.49959842 -0.73600676 94.89467441 -34.77197266 100.21923828 C-35.82078613 100.38020996 -36.86959961 100.54118164 -37.95019531 100.70703125 C-64.8004316 104.99203753 -90.77436239 113.0481229 -116.52197266 121.59423828 C-117.44905029 121.90078339 -118.37612793 122.20732849 -119.33129883 122.52316284 C-121.97569878 123.40097208 -124.6166197 124.28842696 -127.25634766 125.18017578 C-128.04446838 125.44237411 -128.83258911 125.70457245 -129.64459229 125.97471619 C-136.91941412 128.28518163 -136.91941412 128.28518163 -142.13525391 133.48876953 C-142.60511719 134.74753906 -142.60511719 134.74753906 -143.08447266 136.03173828 C-143.57367188 137.27890625 -143.57367188 137.27890625 -144.07275391 138.55126953 C-144.9043989 141.72452949 -145.28038398 143.95765041 -144.77197266 147.21923828 C-142.34484152 149.76520156 -142.34484152 149.76520156 -139.08447266 151.71923828 C-138.02873047 152.43080078 -136.97298828 153.14236328 -135.88525391 153.87548828 C-132.93275694 155.5584081 -132.93275694 155.5584081 -130.43847656 154.45019531 C-129.55853027 154.04397949 -128.67858398 153.63776367 -127.77197266 153.21923828 C-118.76754003 149.50170195 -109.77964289 146.68641165 -100.33911133 144.36914062 C-98.17713016 143.83626667 -96.02058916 143.28431159 -93.86376953 142.73095703 C-92.47798529 142.38476824 -91.09192709 142.03967385 -89.70556641 141.69580078 C-88.46863037 141.38723145 -87.23169434 141.07866211 -85.95727539 140.76074219 C-83.03983427 140.26477496 -81.49441113 140.18999787 -78.77197266 141.21923828 C-84.42352962 143.52876877 -90.10881996 145.7249641 -95.83447266 147.84423828 C-97.95757259 148.64411362 -100.07932456 149.447472 -102.20068359 150.25195312 C-104.08391022 150.96039824 -105.97046947 151.6600015 -107.85888672 152.35449219 C-111.23425605 153.60031753 -114.59701601 154.87651799 -117.95947266 156.15673828 C-119.04687744 156.55135254 -120.13428223 156.9459668 -121.25463867 157.35253906 C-127.81476285 159.88714415 -131.51245233 161.86642593 -134.77197266 168.21923828 C-135.22185623 172.08807197 -135.22185623 172.08807197 -133.31103516 173.81689453 C-132.67939453 174.30029297 -132.04775391 174.78369141 -131.39697266 175.28173828 C-128.88341988 177.23155185 -127.58587214 178.49838905 -125.77197266 181.21923828 C-120.53414805 179.51266148 -115.34582662 177.71509234 -110.19140625 175.77124023 C-94.31047185 169.78758534 -78.35771003 164.82945 -61.77197266 161.21923828 C-62.57376953 160.64947266 -63.37556641 160.07970703 -64.20166016 159.49267578 C-66.90236849 157.10390337 -67.51840784 156.32459221 -67.89697266 152.84423828 C-68.10492576 149.12554751 -67.77377625 148.22228184 -65.77197266 144.84423828 C-58.08247079 138.11592414 -50.68970966 138.6122511 -40.77197266 139.21923828 C-37.93096804 139.56770903 -35.45879982 140.24494955 -32.77197266 141.21923828 C-31.74201172 141.57244141 -30.71205078 141.92564453 -29.65087891 142.28955078 C-19.96263626 145.7865555 -19.96263626 145.7865555 -16.39697266 149.09423828 C-13.00018663 151.77274153 -10.23649188 151.26386547 -6.05322266 150.85986328 C1.4157102 150.22269934 8.82141916 150.06543667 16.31738281 150.08886719 C18.35928703 150.0942548 20.4009732 150.08886234 22.44287109 150.08251953 C29.83973711 150.0819639 37.07309359 150.37132016 44.41748047 151.31005859 C48.94687767 151.16369517 51.72654122 148.72810288 55.29833984 146.14501953 C65.88243888 139.18773843 78.6671349 137.4502031 90.99365234 139.73095703 C95.80921187 141.11024809 99.32009283 142.99804302 102.22802734 147.21923828 C102.86610186 150.02790559 102.85802739 152.40977861 102.22802734 155.21923828 C100.43438823 158.02927289 99.20921799 159.72864296 96.22802734 161.21923828 C96.88802734 161.54923828 97.54802734 161.87923828 98.22802734 162.21923828 C97.56802734 163.53923828 96.90802734 164.85923828 96.22802734 166.21923828 C95.61918701 166.19829102 95.01034668 166.17734375 94.38305664 166.15576172 C78.28832338 165.34750806 78.28832338 165.34750806 63.22802734 170.21923828 C62.11427734 170.79738281 62.11427734 170.79738281 60.97802734 171.38720703 C57.51329792 173.3552243 55.03752087 175.26052212 52.66552734 178.46923828 C50.22802734 181.21923828 50.22802734 181.21923828 46.72802734 182.34423828 C42.50126598 182.19328252 41.1338421 181.21051818 38.22802734 178.21923828 C36.13873612 174.04065583 36.78184319 168.76799882 37.22802734 164.21923828 C38.27752853 161.46487054 39.47805214 159.62545419 41.22802734 157.21923828 C38.58802734 157.21923828 35.94802734 157.21923828 33.22802734 157.21923828 C33.15285889 158.30023804 33.15285889 158.30023804 33.07617188 159.40307617 C32.84279423 162.69655859 32.5980099 165.98909958 32.35302734 169.28173828 C32.27439453 170.41546875 32.19576172 171.54919922 32.11474609 172.71728516 C31.67806939 178.47805866 31.11779878 183.74842937 29.22802734 189.21923828 C26.96630859 189.22314453 26.96630859 189.22314453 24.22802734 188.21923828 C22.53335232 185.7101283 21.50440113 182.97146499 20.41552734 180.15673828 C19.94856445 179.01881836 19.94856445 179.01881836 19.47216797 177.85791016 C18.70667283 175.98539128 17.96502731 174.10315462 17.22802734 172.21923828 C16.92123047 172.83283203 16.61443359 173.44642578 16.29833984 174.07861328 C15.27490234 176.12548828 14.25146484 178.17236328 13.22802734 180.21923828 C10.98974609 180.19970703 10.98974609 180.19970703 8.22802734 179.21923828 C6.42829465 176.85354213 5.26625466 174.22929411 4.04052734 171.53173828 C3.69828125 170.82339844 3.35603516 170.11505859 3.00341797 169.38525391 C1.11172629 165.40719161 -0.47651522 161.43777916 -1.77197266 157.21923828 C-3.42197266 157.21923828 -5.07197266 157.21923828 -6.77197266 157.21923828 C-5.78197266 158.58048828 -5.78197266 158.58048828 -4.77197266 159.96923828 C-1.84208162 165.09654759 -1.97506784 170.48640262 -2.77197266 176.21923828 C-4.69037611 179.98226044 -5.74749864 180.87048117 -9.70947266 182.21923828 C-13.44462208 182.21923828 -14.85587809 181.5214182 -17.77197266 179.21923828 C-18.655625 178.02234375 -18.655625 178.02234375 -19.55712891 176.80126953 C-22.03983508 173.90696834 -24.16133155 172.67080328 -27.58447266 171.03173828 C-28.58091797 170.54318359 -29.57736328 170.05462891 -30.60400391 169.55126953 C-43.3075954 164.20980874 -55.79690113 165.58621825 -68.77197266 169.21923828 C-70.23522029 169.61096327 -71.69878134 170.00151876 -73.16259766 170.39111328 C-78.77690932 171.88156087 -78.77690932 171.88156087 -84.33569336 173.56103516 C-86.77197266 174.21923828 -86.77197266 174.21923828 -89.71411133 174.43994141 C-93.65396445 175.02734107 -95.62129237 175.72250811 -98.77197266 178.21923828 C-102.92785149 185.42469066 -104.7565003 193.88967179 -106.95947266 201.84423828 C-107.61441055 204.07475112 -108.27387053 206.30394144 -108.93798828 208.53173828 C-110.3888114 213.4168374 -111.79513623 218.31239057 -113.16300964 223.22134399 C-113.77197266 225.21923828 -113.77197266 225.21923828 -114.77197266 227.21923828 C-116.42197266 227.21923828 -118.07197266 227.21923828 -119.77197266 227.21923828 C-123.02171379 218.66006092 -123.99372849 210.14736043 -124.96923828 201.08056641 C-125.93494002 193.54471921 -127.46099743 188.7170104 -132.77197266 183.21923828 C-133.51060547 182.41873047 -134.24923828 181.61822266 -135.01025391 180.79345703 C-142.8249467 173.68517714 -149.48968658 171.62621153 -160.03759766 171.93408203 C-166.17401414 172.57402261 -169.85042334 175.64409741 -173.77197266 180.21923828 C-177.07852121 185.73015254 -176.3437573 192.29879392 -175.15478516 198.37158203 C-172.93225911 206.6421325 -169.13461607 212.623297 -163.77197266 219.21923828 C-162.76658279 220.54851214 -161.76453613 221.88035982 -160.77197266 223.21923828 C-161.10197266 223.87923828 -161.43197266 224.53923828 -161.77197266 225.21923828 C-164.33447266 225.84423828 -164.33447266 225.84423828 -166.77197266 226.21923828 C-176.51084319 214.86125031 -183.68904714 202.35030964 -183.18212891 186.92236328 C-182.07724226 179.64063412 -178.37338976 174.04206895 -172.71337891 169.47314453 C-165.11685827 164.56673985 -158.6496815 164.49338787 -149.77197266 165.21923828 C-146.54173618 165.95685133 -143.83777811 166.92837283 -140.77197266 168.21923828 C-140.11197266 165.24923828 -139.45197266 162.27923828 -138.77197266 159.21923828 C-139.54283203 158.76033203 -140.31369141 158.30142578 -141.10791016 157.82861328 C-142.61224609 156.90822266 -142.61224609 156.90822266 -144.14697266 155.96923828 C-145.14470703 155.36595703 -146.14244141 154.76267578 -147.17041016 154.14111328 C-149.7810485 152.2125336 -150.81151549 151.2694174 -151.77197266 148.21923828 C-152.32217585 140.43174693 -149.34186252 132.99790199 -145.77197266 126.21923828 C-144.17041016 124.49658203 -144.17041016 124.49658203 -142.77197266 123.21923828 C-142.44197266 122.55923828 -142.11197266 121.89923828 -141.77197266 121.21923828 C-147.52411861 122.18170365 -153.14777289 123.29095798 -158.77197266 124.84423828 C-164.4546565 126.31505057 -169.91809561 126.79034824 -175.77197266 126.21923828 C-176.77197266 125.21923828 -176.77197266 125.21923828 -177.08447266 122.43408203 C-176.69637529 118.44153034 -175.68378438 117.46237576 -172.77197266 114.78173828 C-171.94052734 114.00572266 -171.10908203 113.22970703 -170.25244141 112.43017578 C-169.43388672 111.70056641 -168.61533203 110.97095703 -167.77197266 110.21923828 C-167.14935547 109.65462891 -166.52673828 109.09001953 -165.88525391 108.50830078 C-163.87088464 106.71677931 -161.8228811 104.96884465 -159.77197266 103.21923828 C-158.73103409 102.31495066 -157.69072083 101.40994297 -156.65087891 100.50439453 C-150.28478462 94.97896856 -143.82844745 89.61476931 -137.17285156 84.44165039 C-132.57339067 80.86422072 -128.03814405 77.21366509 -123.52197266 73.53173828 C-117.6303498 68.72880023 -111.72018728 63.95207251 -105.77197266 59.21923828 C-106.90892578 59.4609375 -106.90892578 59.4609375 -108.06884766 59.70751953 C-113.06476536 60.39788369 -117.98471162 60.40345881 -123.02197266 60.40673828 C-124.02744141 60.41898438 -125.03291016 60.43123047 -126.06884766 60.44384766 C-127.02791016 60.44578125 -127.98697266 60.44771484 -128.97509766 60.44970703 C-130.28462402 60.45587036 -130.28462402 60.45587036 -131.62060547 60.4621582 C-133.77197266 60.21923828 -133.77197266 60.21923828 -135.77197266 58.21923828 C-135.57197111 55.66080578 -135.16521524 54.56222839 -133.21875 52.86450195 C-128.40459552 50.04075828 -123.56493948 47.63689329 -118.39697266 45.53173828 C-117.58953613 45.19779053 -116.78209961 44.86384277 -115.95019531 44.51977539 C-100.14406177 38.03851857 -84.14935988 32.02526578 -68.08447266 26.21923828 C-67.05177246 25.84549072 -66.01907227 25.47174316 -64.95507812 25.08666992 C-60.87134029 23.62374245 -56.80998623 22.18700834 -52.62744141 21.03173828 C-49.89514732 20.5046098 -49.89514732 20.5046098 -48.77197266 19.21923828 C-49.67560547 18.74873047 -50.57923828 18.27822266 -51.51025391 17.79345703 C-52.70181252 17.1648395 -53.89321037 16.53591719 -55.08447266 15.90673828 C-55.679375 15.59800781 -56.27427734 15.28927734 -56.88720703 14.97119141 C-62.82209208 11.82139208 -62.82209208 11.82139208 -64.77197266 9.21923828 C-65.02197266 6.09423828 -65.02197266 6.09423828 -64.77197266 3.21923828 C-63.15807673 1.60534236 -61.35953154 2.00695193 -59.12426758 1.92211914 C-58.12361771 1.88220352 -57.12296783 1.8422879 -56.09199524 1.80116272 C-54.98994247 1.76252609 -53.88788971 1.72388947 -52.75244141 1.68408203 C-51.6070842 1.6406517 -50.46172699 1.59722137 -49.28166199 1.55247498 C-36.35606849 1.07421147 -23.42743366 0.68760178 -10.49810791 0.32647705 C-6.99842623 0.22575565 -3.49925407 0.1144933 0 0 Z " fill="#020202" transform="translate(232.77197265625,89.78076171875)"/>
<path d="M0 0 C1.65 0 3.3 0 5 0 C5.27674561 0.62567871 5.55349121 1.25135742 5.83862305 1.89599609 C7.10416202 4.73048733 8.39539374 7.55252675 9.6875 10.375 C10.12255859 11.35984375 10.55761719 12.3446875 11.00585938 13.359375 C11.44091797 14.30039062 11.87597656 15.24140625 12.32421875 16.2109375 C12.71697998 17.08024902 13.10974121 17.94956055 13.5144043 18.84521484 C15.35199485 21.51055162 16.94803788 22.08329343 20 23 C20.99 19.7 21.98 16.4 23 13 C25.7438377 16.65845027 27.47150643 20.08077118 29.1875 24.25 C29.59645508 25.22453125 29.59645508 25.22453125 30.01367188 26.21875 C30.68076842 27.81041896 31.34107445 29.40493103 32 31 C33.32 31 34.64 31 36 31 C37.24760079 22.92087646 38.2552413 14.90400968 38.75390625 6.7421875 C38.96617675 4.37688764 39.34155514 2.27462769 40 0 C42.64 0 45.28 0 48 0 C46.125 4.75 46.125 4.75 45 7 C44.41532516 12.65464092 44.00155364 17.39643464 47.0625 22.3125 C49.92762019 24.22933679 49.92762019 24.22933679 53.375 24.3125 C57.17167872 22.93784046 57.77533277 22.33682415 60.125 19.3125 C65.03586471 13.09281713 73.24704321 9.42654405 81 8 C92.05645863 6.97344905 102.37011297 9.29240401 113 12 C114.14194824 12.2897168 115.28389648 12.57943359 116.46044922 12.87792969 C120.17187675 13.84100611 123.86775661 14.84990275 127.5625 15.875 C128.75891113 16.19017578 129.95532227 16.50535156 131.18798828 16.83007812 C132.30286621 17.15169922 133.41774414 17.47332031 134.56640625 17.8046875 C135.56615479 18.08296387 136.56590332 18.36124023 137.59594727 18.64794922 C140 20 140 20 141.27929688 22.70092773 C142.02856979 26.13078033 142.56277984 29.49239419 142.96484375 32.98046875 C143.12687857 34.3235767 143.28899045 35.66667537 143.45117188 37.00976562 C143.69486342 39.09126704 143.93584318 41.1730493 144.17456055 43.25512695 C145.35190881 55.92573714 145.35190881 55.92573714 149 68 C149.99 68.33 150.98 68.66 152 69 C152.27763184 68.14043701 152.55526367 67.28087402 152.84130859 66.39526367 C154.60481216 61.22774489 156.71763264 56.21842612 158.83837891 51.1887207 C159.61360924 49.33966883 160.37139959 47.48333632 161.12890625 45.62695312 C165.38016833 35.55048842 170.41539404 25.70463147 179.6875 19.4375 C181.02361328 18.50744141 181.02361328 18.50744141 182.38671875 17.55859375 C189.15160816 13.52392876 195.23104563 13.2390746 203 14 C208.41948183 15.59904966 212.39593086 18.65391662 216 23 C219.39804235 30.17896271 218.69805645 37.52077251 216.5 45 C214.11233493 51.52797791 210.34977147 56.63924648 206 62 C205.505 62.65871094 205.01 63.31742187 204.5 63.99609375 C197.64656367 72.73811906 186.94512452 78.41101548 177 83 C176.01 83 175.02 83 174 83 C173.67 81.02 173.34 79.04 173 77 C174.051875 76.649375 175.10375 76.29875 176.1875 75.9375 C180.70711352 74.04514149 182.45568224 71.08632852 185 67 C184.49210937 67.3609375 183.98421875 67.721875 183.4609375 68.09375 C179.16783762 70.98797464 176.36584077 72.6707301 171 72 C170.67 70.68 170.34 69.36 170 68 C171.19109375 67.25556641 171.19109375 67.25556641 172.40625 66.49609375 C178.78502184 62.65780294 178.78502184 62.65780294 181.75 56.3125 C181.29921805 54.32154638 180.81080136 52.33780476 180.25 50.375 C180 48 180 48 181.625 45.375 C185.79325473 41.20674527 188.40669567 39.82915953 194.3125 39.8125 C195.87551517 39.86041725 197.43839515 39.91812945 199 40 C199 39.01 199 38.02 199 37 C195.2483423 35.12417115 191.08512416 35.47442847 187 36 C181.44097534 38.19335667 177.68842117 41.62315766 175 47 C174.43762034 50.84292766 175.40218431 53.50477817 177 57 C175.71283353 58.00578589 174.42011342 59.00446798 173.125 60 C172.40570313 60.556875 171.68640625 61.11375 170.9453125 61.6875 C169 63 169 63 167 63 C166.9484375 63.72445312 166.896875 64.44890625 166.84375 65.1953125 C165.90371898 73.20694048 165.90371898 73.20694048 163.0859375 75.6796875 C162.35632813 76.11539063 161.62671875 76.55109375 160.875 77 C158.67130607 78.23244751 158.67130607 78.23244751 157 80 C156.29948802 83.75348954 156.5166552 87.22722529 157 91 C155.68 91.33 154.36 91.66 153 92 C153.0825 93.258125 153.165 94.51625 153.25 95.8125 C153.20272637 105.86602557 148.34081271 114.4620629 142 122 C139.75528674 124.18794036 137.48287526 126.0745049 135 128 C134.34 127.67 133.68 127.34 133 127 C134.00911458 125.27473958 135.01822917 123.54947917 136.02734375 121.82421875 C138.57627859 117.04368633 138.66270778 112.27932378 138 107 C136.01668414 101.23110201 133.43374258 96.08735374 128 93 C105.21240665 83.8516961 83.53709624 92.28597751 62 101 C59.97788613 101.87203661 57.95696808 102.74685364 55.9375 103.625 C31.15631716 114.11976322 10.15121744 111.34922297 -14.1875 101.5625 C-16.59531007 100.58657377 -19.00286859 99.61002665 -21.41015625 98.6328125 C-28.83332582 95.62892503 -36.26773336 93.08723762 -44 91 C-45.31291016 90.63648438 -45.31291016 90.63648438 -46.65234375 90.265625 C-57.88752437 87.5706384 -69.97508682 87.51295177 -80.1796875 93.21875 C-85.5543141 96.76245985 -88.40144574 100.75658996 -90 107 C-91.01471275 114.52287036 -89.36333893 120.27332214 -86 127 C-91.74081924 124.44852478 -95.40773423 120.87645758 -98.6875 115.5625 C-99.26886719 114.63566406 -99.85023437 113.70882812 -100.44921875 112.75390625 C-103.32426556 107.64834453 -104.24426556 104.09114523 -104.125 98.1875 C-104.10695313 97.02605469 -104.08890625 95.86460937 -104.0703125 94.66796875 C-104.04710938 93.78753906 -104.02390625 92.90710938 -104 92 C-105.65 91.67 -107.3 91.34 -109 91 C-108.86078125 89.91332031 -108.86078125 89.91332031 -108.71875 88.8046875 C-108.48719326 85.70348116 -108.42652461 83.06278341 -109 80 C-110.90099851 78.05647356 -112.85183833 76.86431633 -115.171875 75.4609375 C-117 74 -117 74 -117.578125 72.0390625 C-117.63226563 70.99878906 -117.63226563 70.99878906 -117.6875 69.9375 C-117.6428171 65.92766136 -117.6428171 65.92766136 -120.1875 63.1875 C-123.00970893 60.99244861 -125.73531417 59.4425356 -129 58 C-128.855625 57.484375 -128.71125 56.96875 -128.5625 56.4375 C-128.2840625 55.2309375 -128.2840625 55.2309375 -128 54 C-127.649375 52.948125 -127.29875 51.89625 -126.9375 50.8125 C-127.02329943 45.5787348 -129.17111495 43.6043072 -132.74609375 39.9609375 C-136.94024797 36.31195064 -140.05275969 35 -145.75 35 C-149.16994558 35.70540383 -149.16994558 35.70540383 -150.9375 38.5625 C-151.4634375 39.7690625 -151.4634375 39.7690625 -152 41 C-151.34773438 40.89300781 -150.69546875 40.78601563 -150.0234375 40.67578125 C-144.4448022 39.91057021 -140.79061257 39.57813388 -136 43 C-133.5625 45.375 -133.5625 45.375 -132 48 C-132.25 50.375 -132.25 50.375 -133 53 C-133.91720924 56.41356344 -133.91720924 56.41356344 -133 60 C-130.55721556 62.07332416 -128.04433609 63.69820419 -125.28515625 65.32421875 C-123 67 -123 67 -122.12109375 69.14453125 C-122.06115234 70.06298828 -122.06115234 70.06298828 -122 71 C-123 72 -123 72 -125.625 72.3125 C-130.02066759 71.90549374 -132.30382522 70.36555186 -136 68 C-133.03084172 73.3444849 -130.77281088 75.00171931 -125 77 C-125.33 78.98 -125.66 80.96 -126 83 C-139.45425747 81.38026415 -152.19993939 69.8165884 -160.25 59.75 C-164.49462354 54.23986897 -167.20493593 48.76253696 -169 42 C-169.18820313 41.33613281 -169.37640625 40.67226563 -169.5703125 39.98828125 C-170.95515757 33.58022542 -170.59729868 27.49800195 -167.34375 21.7578125 C-164.36837266 17.86560378 -160.59779672 15.53259891 -156 14 C-147.30206877 13.32088225 -139.5789586 13.57100817 -132.43359375 18.921875 C-129.8052885 21.19373348 -127.36576576 23.45369885 -125 26 C-124.48646973 26.53197998 -123.97293945 27.06395996 -123.44384766 27.61206055 C-118.25988929 33.58742078 -117.6053943 39.75991686 -116.75 47.4375 C-116.45600786 49.79072654 -116.1591895 52.14360193 -115.859375 54.49609375 C-115.65344727 56.15874268 -115.65344727 56.15874268 -115.44335938 57.85498047 C-114.86243279 61.97584848 -113.98555006 65.95838024 -113 70 C-111.35 70 -109.7 70 -108 70 C-107.85087158 69.43216797 -107.70174316 68.86433594 -107.5480957 68.27929688 C-105.20018424 59.50036803 -102.63593121 50.7885027 -99.97631836 42.09960938 C-99.44690573 40.35489082 -98.92650296 38.60741486 -98.41479492 36.85742188 C-97.66688193 34.30401317 -96.88952444 31.76125885 -96.10546875 29.21875 C-95.88336227 28.43753784 -95.6612558 27.65632568 -95.43241882 26.85144043 C-94.20930522 22.99755797 -93.59795847 21.40179331 -90.14599609 19.08227539 C-87.29041812 18.0999087 -84.48947406 17.19054807 -81.55859375 16.46484375 C-80.56279297 16.21283203 -79.56699219 15.96082031 -78.54101562 15.70117188 C-77.51685547 15.44916016 -76.49269531 15.19714844 -75.4375 14.9375 C-73.39377475 14.42881102 -71.35077638 13.91719083 -69.30859375 13.40234375 C-67.95979126 13.06964478 -67.95979126 13.06964478 -66.58374023 12.73022461 C-63.96389812 11.98979678 -61.51408582 11.03938295 -59 10 C-46.53786318 6.32933425 -33.01978233 6.50337322 -21.34375 12.32421875 C-17.34921938 14.56233076 -14.04562412 16.59688028 -11.3125 20.3125 C-9.15780256 23.27707284 -9.15780256 23.27707284 -5.5 24.1875 C-1.94272739 24.26078518 -1.94272739 24.26078518 0.9375 22.3125 C3.98003855 17.4259987 3.89686625 12.62036181 3 7 C2.05444182 5.30185469 1.06244317 3.62757251 0 2 C0 1.34 0 0.68 0 0 Z " fill="#FAFAFA" transform="translate(226,247)"/>
<path d="M0 0 C1.98444664 -0.01167225 3.96885841 -0.0323549 5.953125 -0.06152344 C8.88228774 -0.10425183 11.81055463 -0.12035339 14.73999023 -0.13061523 C15.61511765 -0.14812332 16.49024506 -0.16563141 17.39189148 -0.18367004 C23.6769929 -0.16166755 28.23596595 1.35445378 33.75952148 4.29516602 C34.72011475 4.79693359 35.68070801 5.29870117 36.67041016 5.81567383 C37.49774658 6.2884375 38.32508301 6.76120117 39.17749023 7.24829102 C40.11536377 7.78147949 41.0532373 8.31466797 42.01953125 8.86401367 C42.98560303 9.41879395 43.9516748 9.97357422 44.94702148 10.54516602 C45.95498779 11.11928223 46.9629541 11.69339844 48.00146484 12.28491211 C50.92346819 13.95041422 53.84220706 15.62146697 56.75952148 17.29516602 C57.52748047 17.73570313 58.29543945 18.17624023 59.08666992 18.63012695 C60.11195801 19.21842285 60.11195801 19.21842285 61.15795898 19.81860352 C62.10505737 20.36145996 62.10505737 20.36145996 63.07128906 20.9152832 C64.68901475 21.84382301 66.30445099 22.7763485 67.91967773 23.70922852 C73.51623861 27.10499154 73.51623861 27.10499154 79.75952148 28.29516602 C81.49152303 26.59156522 81.49152303 26.59156522 83.13452148 24.42016602 C87.77369674 18.95947014 87.77369674 18.95947014 91.75952148 18.29516602 C102.53067165 17.99948738 110.25577888 24.607845 118.76025391 30.35498047 C128.49361783 36.8723534 138.74319527 42.34801474 149.25952148 47.48266602 C167.72603765 56.57339804 172.92504237 68.98819603 179.32592773 87.76391602 C180.24631444 90.48099165 181.16064632 93.20005544 182.07202148 95.92016602 C182.40925232 96.92566498 182.40925232 96.92566498 182.7532959 97.95147705 C183.40134952 99.89024437 184.04435268 101.83060249 184.68530273 103.77172852 C185.06082275 104.90690918 185.43634277 106.04208984 185.82324219 107.21166992 C188.56232113 116.23241751 189.13010073 124.70796335 184.92749023 133.32250977 C183.75952148 135.29516602 183.75952148 135.29516602 182.00952148 137.06469727 C180.39378765 139.40601081 180.39378765 139.40601081 181.34155273 142.90454102 C181.73307991 144.29014906 182.14400183 145.67039245 182.57202148 147.04516602 C184.54135959 153.58063507 185.99472099 159.5895675 183.75952148 166.29516602 C184.74952148 166.37766602 185.73952148 166.46016602 186.75952148 166.54516602 C195.33809048 167.83711918 201.9881212 173.03914434 207.75952148 179.29516602 C209.73772209 182.17604068 211.31177046 185.11866588 212.75952148 188.29516602 C213.17202148 189.18204102 213.58452148 190.06891602 214.00952148 190.98266602 C218.07958235 203.53202035 215.49917993 216.84714569 209.80639648 228.46313477 C205.46457964 236.74499997 200.44727096 243.71808852 193.75952148 250.29516602 C195.7759579 256.83160851 198.31774176 262.97140093 201.19702148 269.17016602 C211.06619371 290.88953412 211.06619371 290.88953412 208.75952148 298.29516602 C205.83355904 302.58505366 202.69844005 306.39269833 197.75952148 308.29516602 C188.1809131 309.62648884 178.15124936 307.0309309 168.75952148 305.29516602 C168.80592773 306.09180664 168.85233398 306.88844727 168.90014648 307.70922852 C169.26513447 318.42423305 169.26513447 318.42423305 164.75952148 323.29516602 C161.26619076 326.98811564 158.16731912 328.11899515 153.21264648 328.45532227 C144.17059453 327.86499722 134.62912249 321.64882022 127.94702148 315.85766602 C125.89300729 314.0351517 125.89300729 314.0351517 123.45874023 314.48266602 C120.28864457 315.4369061 118.12248843 316.86859811 115.38452148 318.73266602 C87.09773393 336.91225429 49.74839159 346.3564377 16.32983398 346.49829102 C15.25941864 346.50399109 14.1890033 346.50969116 13.08615112 346.51556396 C10.82884695 346.52495991 8.57152939 346.53152627 6.31420898 346.53540039 C2.92853607 346.54504069 -0.45651171 346.57609011 -3.84204102 346.60766602 C-17.25539508 346.67325519 -30.06495006 345.83948947 -43.24047852 343.29516602 C-44.29477051 343.09632813 -45.3490625 342.89749023 -46.43530273 342.69262695 C-48.886663 342.19467322 -51.31202346 341.64406942 -53.74047852 341.04516602 C-54.59955811 340.83537109 -55.4586377 340.62557617 -56.34375 340.40942383 C-76.71025659 335.25504089 -97.32452275 327.57165142 -114.70922852 315.63110352 C-117.04792201 314.14021399 -117.04792201 314.14021399 -119.17016602 314.31469727 C-122.26641229 315.78103276 -125.04046012 317.68709713 -127.86547852 319.60766602 C-143.12436536 329.62434534 -143.12436536 329.62434534 -152.13500977 328.02954102 C-157.41301217 326.18860511 -160.4156989 322.66120725 -163.24047852 317.98266602 C-164.47312912 313.43726692 -164.10153204 309.87016124 -163.24047852 305.29516602 C-164.2446582 305.51172852 -165.24883789 305.72829102 -166.28344727 305.95141602 C-188.9700899 310.65828091 -188.9700899 310.65828091 -196.86547852 306.10766602 C-201.18420198 302.85271233 -202.82141351 299.91555072 -204.17797852 294.67016602 C-205.11196603 284.30506548 -197.29154431 272.53666886 -193.07226562 263.45288086 C-192.2486991 261.67507558 -191.43773681 259.89144826 -190.62719727 258.10766602 C-190.14468506 257.06223633 -189.66217285 256.01680664 -189.16503906 254.93969727 C-187.91888882 252.24060365 -187.91888882 252.24060365 -189.24047852 249.29516602 C-190.40011811 248.16963346 -191.55998062 247.04432969 -192.72094727 245.92016602 C-203.41802708 234.48061536 -210.08137323 219.31500004 -210.61547852 203.67016602 C-210.24126652 192.9427556 -206.78481096 184.09203534 -199.35375977 176.32250977 C-193.05857595 170.49730038 -186.82408596 167.01046664 -178.24047852 166.29516602 C-178.57047852 165.30516602 -178.90047852 164.31516602 -179.24047852 163.29516602 C-179.37329102 161.35766602 -179.37329102 161.35766602 -179.36547852 159.29516602 C-179.36805664 158.61454102 -179.37063477 157.93391602 -179.37329102 157.23266602 C-179.24047852 155.29516602 -179.24047852 155.29516602 -178.24047852 152.29516602 C-179.15829102 152.34157227 -180.07610352 152.38797852 -181.02172852 152.43579102 C-195.14556119 152.85119786 -195.14556119 152.85119786 -200.24047852 148.29516602 C-203.66743655 144.17622607 -205.67547193 140.16224764 -205.36547852 134.73266602 C-203.00841307 122.36878635 -191.3001347 114.01765902 -182.24047852 106.29516602 C-181.1527671 105.35560781 -180.06557103 104.41545281 -178.97875977 103.47485352 C-159.09322385 86.29516602 -159.09322385 86.29516602 -156.24047852 86.29516602 C-156.81731513 82.40151885 -158.78869629 80.2832756 -161.24047852 77.29516602 C-163.09037374 71.74548035 -163.20561893 66.26256763 -160.61547852 60.98266602 C-154.63927534 54.22012032 -148.39617966 51.34512527 -140.11547852 47.98266602 C-138.96273437 47.50555176 -137.80999023 47.0284375 -136.62231445 46.53686523 C-133.16645149 45.11102302 -129.70447422 43.70111692 -126.24047852 42.29516602 C-125.26949219 41.89797363 -124.29850586 41.50078125 -123.2980957 41.09155273 C-113.03469755 36.89523333 -102.72532169 32.90584048 -92.24047852 29.29516602 C-92.28688477 28.28196289 -92.33329102 27.26875977 -92.38110352 26.22485352 C-92.41864609 24.8733207 -92.45504358 23.52175573 -92.49047852 22.17016602 C-92.52399414 21.50500977 -92.55750977 20.83985352 -92.59204102 20.15454102 C-92.69301463 15.00488677 -91.44097798 12.26214707 -88.24047852 8.29516602 C-82.60621132 3.09430399 -77.66304773 2.00146251 -70.14282227 1.91625977 C-69.35388077 1.89926529 -68.56493927 1.88227081 -67.75209045 1.86476135 C-65.22746822 1.81185759 -62.70285128 1.77160696 -60.17797852 1.73266602 C-56.89533326 1.67324134 -53.61282035 1.60829001 -50.33032227 1.54125977 C-49.49965744 1.52511124 -48.66899261 1.50896271 -47.81315613 1.49232483 C-42.01519091 1.36784827 -36.23370265 1.10794396 -30.44360352 0.78735352 C-20.29712806 0.23908441 -10.16055157 0.04154084 0 0 Z M-28.84545898 13.50610352 C-41.63911578 13.86676496 -54.43135418 14.27559083 -67.22094727 14.76000977 C-68.3230101 14.79864136 -69.42507294 14.83727295 -70.56053162 14.8770752 C-72.06149132 14.93695618 -72.06149132 14.93695618 -73.59277344 14.99804688 C-74.47043869 15.03135605 -75.34810394 15.06466522 -76.25236511 15.09898376 C-78.23960217 15.08287276 -78.23960217 15.08287276 -79.24047852 16.29516602 C-79.99431189 19.07961179 -79.99431189 19.07961179 -79.24047852 22.29516602 C-74.86749834 26.91803077 -68.93427409 29.65161807 -63.24047852 32.29516602 C-66.35033597 34.36840432 -68.57320818 35.02276024 -72.16625977 35.95532227 C-80.89656471 38.37997064 -89.31382674 41.52238404 -97.78222656 44.73095703 C-100.43170987 45.73407875 -103.0848124 46.72712335 -105.73852539 47.71899414 C-113.58485923 50.66597054 -121.36402193 53.64888449 -128.95263672 57.22021484 C-131.18556621 58.26936526 -133.43647679 59.2498365 -135.70922852 60.20922852 C-136.38211914 60.49540039 -137.05500977 60.78157227 -137.74829102 61.07641602 C-139.10572641 61.65132983 -140.46519804 62.22145391 -141.82641602 62.78735352 C-146.61295435 64.75798093 -146.61295435 64.75798093 -150.24047852 68.29516602 C-149.98901273 70.43262523 -149.78122072 71.75442381 -148.24047852 73.29516602 C-146.67659619 73.39446608 -145.1082902 73.425966 -143.54125977 73.42797852 C-142.57897461 73.42926758 -141.61668945 73.43055664 -140.62524414 73.43188477 C-139.61139648 73.42801758 -138.59754883 73.42415039 -137.55297852 73.42016602 C-136.06121094 73.4259668 -136.06121094 73.4259668 -134.53930664 73.43188477 C-129.66344926 73.4253966 -125.03184851 73.32363726 -120.24047852 72.29516602 C-126.57984049 77.61064479 -132.94157738 82.88680103 -139.41625977 88.03735352 C-145.093825 92.57626459 -150.7228104 97.1753269 -156.35864258 101.76586914 C-158.01074809 103.10847279 -159.66816066 104.4445405 -161.32641602 105.77954102 C-166.94519167 110.31964054 -172.34192874 115.04129619 -177.65844727 119.93188477 C-180.58966239 122.61476699 -183.57506413 125.22774302 -186.58422852 127.82250977 C-187.40407227 128.55147461 -187.40407227 128.55147461 -188.24047852 129.29516602 C-189.08352539 130.03573242 -189.08352539 130.03573242 -189.94360352 130.79125977 C-191.55530498 132.36093641 -191.55530498 132.36093641 -191.49047852 135.42016602 C-191.5601603 138.1898816 -191.5601603 138.1898816 -190.24047852 139.29516602 C-180.37589102 140.79304264 -170.63819843 137.37079496 -161.24243164 134.75415039 C-159.24047852 134.29516602 -159.24047852 134.29516602 -156.24047852 134.29516602 C-157.19038803 136.41419492 -157.97566282 138.04685645 -159.68188477 139.64672852 C-164.41550376 144.65321276 -165.67963185 152.36119094 -166.45532227 158.97094727 C-166.16338965 162.12912734 -165.15022415 163.77332242 -163.24047852 166.29516602 C-160.78786698 168.15045283 -160.78786698 168.15045283 -158.05297852 169.60766602 C-157.15192383 170.11942383 -156.25086914 170.63118164 -155.32250977 171.15844727 C-154.2919043 171.72112305 -154.2919043 171.72112305 -153.24047852 172.29516602 C-153.82851648 175.31936126 -154.46725969 178.31275055 -155.24047852 181.29516602 C-156.41610352 180.80016602 -157.59172852 180.30516602 -158.80297852 179.79516602 C-166.27853513 177.35440857 -174.73608869 176.68138856 -182.21704102 179.36157227 C-189.55731883 183.43088036 -194.53417074 189.35828132 -197.24047852 197.29516602 C-198.97340708 208.18525397 -195.08575231 220.64802415 -188.99047852 229.67016602 C-183.87935817 236.29113591 -178.16068355 242.39740066 -172.24047852 248.29516602 C-173.90319883 252.10939859 -175.57116916 255.92131287 -177.24047852 259.73266602 C-177.73580078 260.86671875 -178.23112305 262.00077148 -178.74145508 263.16918945 C-181.01209538 268.34144748 -183.30027774 273.49237166 -185.78735352 278.56469727 C-186.1624707 279.33177002 -186.53758789 280.09884277 -186.92407227 280.88916016 C-187.61771237 282.29152641 -188.32288098 283.68826902 -189.04125977 285.078125 C-190.50789722 288.04553452 -191.27896538 289.91232301 -190.94360352 293.24829102 C-190.71157227 293.92375977 -190.47954102 294.59922852 -190.24047852 295.29516602 C-182.79835581 295.53067623 -175.82500614 294.63826778 -168.49047852 293.42016602 C-167.3805957 293.24614258 -166.27071289 293.07211914 -165.12719727 292.89282227 C-160.20053736 292.09246235 -155.86208212 291.2034225 -151.24047852 289.29516602 C-149.24804602 288.91923536 -147.24861111 288.57537056 -145.24047852 288.29516602 C-145.42223633 288.90513428 -145.60399414 289.51510254 -145.79125977 290.14355469 C-146.61466803 292.92123801 -147.42765774 295.701867 -148.24047852 298.48266602 C-148.66973633 299.92222656 -148.66973633 299.92222656 -149.10766602 301.39086914 C-149.37836914 302.3222168 -149.64907227 303.25356445 -149.92797852 304.21313477 C-150.1793457 305.06673584 -150.43071289 305.92033691 -150.68969727 306.79980469 C-151.25834717 309.37612147 -151.33931746 311.66563828 -151.24047852 314.29516602 C-145.6535072 315.94494197 -142.56357826 314.05875027 -137.58813477 311.46313477 C-133.07554262 308.54074429 -129.31054653 305.05367487 -125.51782227 301.25927734 C-121.52186818 297.29516602 -121.52186818 297.29516602 -118.24047852 297.29516602 C-115.90667991 298.93089559 -113.67099517 300.60559303 -111.42797852 302.35766602 C-69.75213685 333.70453829 -10.27997326 338.73346657 39.86499023 332.40844727 C46.28353146 331.44920479 52.51990651 330.07091075 58.75952148 328.29516602 C59.66847168 328.04347656 60.57742188 327.79178711 61.51391602 327.5324707 C67.72080961 325.75970964 73.74538616 323.63399642 79.75952148 321.29516602 C80.76595703 320.90635254 81.77239258 320.51753906 82.80932617 320.11694336 C98.67638121 313.91622056 111.64022557 307.25162789 124.75952148 296.29516602 C125.74952148 297.14079102 126.73952148 297.98641602 127.75952148 298.85766602 C128.40405273 299.40551758 129.04858398 299.95336914 129.71264648 300.51782227 C131.03667583 301.66750423 132.34064588 302.84088578 133.61889648 304.04125977 C139.01832453 309.0502333 145.97463027 315.02457217 153.59155273 315.45532227 C154.66469727 315.37604492 154.66469727 315.37604492 155.75952148 315.29516602 C156.8429655 311.27617436 156.59815882 308.60467269 155.50952148 304.60766602 C155.25686523 303.65504883 155.00420898 302.70243164 154.74389648 301.72094727 C153.45456855 297.2338814 152.11156529 292.76368188 150.75952148 288.29516602 C151.87810547 288.55994751 151.87810547 288.55994751 153.01928711 288.83007812 C156.43169672 289.6352564 159.84558012 290.43400843 163.25952148 291.23266602 C164.43256836 291.51045898 165.60561523 291.78825195 166.81420898 292.07446289 C174.81550067 293.93993258 182.44703219 295.44330764 190.69702148 295.42016602 C191.63416992 295.42274414 192.57131836 295.42532227 193.53686523 295.42797852 C195.7323943 295.54351672 195.7323943 295.54351672 196.75952148 294.29516602 C196.55298647 287.21396543 193.20044356 281.51792438 190.07202148 275.29516602 C185.53978795 266.09166925 181.32619864 256.91580833 177.75952148 247.29516602 C178.37698242 246.78469727 178.99444336 246.27422852 179.63061523 245.74829102 C191.56738341 235.50120235 201.37544098 222.78006467 203.03295898 206.63110352 C203.32272078 198.18343263 201.78133919 191.91244702 196.15014648 185.44750977 C188.71537759 178.50725531 181.12867282 177.8136094 171.28295898 177.99047852 C167.08522092 178.35347582 164.36600051 179.18405634 160.75952148 181.29516602 C160.09952148 178.32516602 159.43952148 175.35516602 158.75952148 172.29516602 C159.53038086 171.83625977 160.30124023 171.37735352 161.09545898 170.90454102 C162.09834961 170.29094727 163.10124023 169.67735352 164.13452148 169.04516602 C165.13225586 168.44188477 166.12999023 167.83860352 167.15795898 167.21704102 C169.75005424 165.30215984 170.72267492 164.28583905 171.75952148 161.29516602 C172.69918475 154.98599839 170.34196176 150.08051266 167.95092773 144.28344727 C167.55776367 143.29731445 167.16459961 142.31118164 166.75952148 141.29516602 C166.46174805 140.61067383 166.16397461 139.92618164 165.85717773 139.22094727 C165.69570194 136.03664452 167.61739956 134.50835233 169.63452148 132.17016602 C174.32190657 126.66616332 175.14764718 124.02000901 175.08081055 116.78979492 C174.50425658 110.51867528 172.31246396 104.85486941 170.13452148 98.98266602 C169.66945765 97.69652903 169.20551631 96.40998563 168.74267578 95.12304688 C167.83850563 92.62124925 166.92026453 90.12608369 165.99438477 87.63208008 C164.96834712 84.85946589 163.97698578 82.07938033 163.00561523 79.28735352 C162.5301241 77.97659426 162.05254104 76.66659024 161.57202148 75.35766602 C160.99387695 73.76631836 160.99387695 73.76631836 160.40405273 72.14282227 C155.6905068 63.98088644 146.88973335 60.52845031 138.75952148 56.48266602 C125.79914707 49.91952633 113.25255292 43.24372034 101.75952148 34.29516602 C98.43063996 31.77940377 98.43063996 31.77940377 94.50952148 31.54516602 C92.76725879 32.16363182 92.76725879 32.16363182 91.75952148 33.29516602 C91.55883925 35.19331856 91.55883925 35.19331856 91.57202148 37.42016602 C91.5578418 38.16524414 91.54366211 38.91032227 91.52905273 39.67797852 C91.82511014 43.03998636 92.76467033 46.07861168 93.75952148 49.29516602 C75.77742754 42.5116153 59.22922454 34.07080134 42.69091797 24.31347656 C41.21233936 23.44273775 39.72568161 22.58560546 38.23217773 21.74072266 C36.44354896 20.69506004 34.69465247 19.58043056 32.97436523 18.42578125 C23.16446886 12.2907106 14.78187908 12.400064 3.50952148 12.73266602 C1.62894398 12.76256689 -0.25167542 12.78992333 -2.13232422 12.81494141 C-11.03888658 12.95681536 -19.94133782 13.26022094 -28.84545898 13.50610352 Z " fill="#FAFAFA" transform="translate(247.240478515625,76.704833984375)"/>
<path d="M0 0 C0.85201996 0.12615692 1.70403992 0.25231384 2.58187866 0.3822937 C13.54364406 2.05025778 24.22915438 4.39293992 34.9375 7.25 C36.05455322 7.53842773 37.17160645 7.82685547 38.32250977 8.12402344 C53.45930196 12.05153007 68.35331294 16.56007095 83.1875 21.5 C83.96017212 21.75612061 84.73284424 22.01224121 85.52893066 22.27612305 C108.52548405 29.92324066 108.52548405 29.92324066 111.4375 34.9375 C113.22371029 39.24876212 113.72301499 43.61712372 113.9375 48.25 C112.19329087 49.57018588 110.44189909 50.88088602 108.6875 52.1875 C107.71296875 52.91839844 106.7384375 53.64929688 105.734375 54.40234375 C101.57968737 57.14699075 101.57968737 57.14699075 98.9375 57.25 C96.23046875 56.17578125 96.23046875 56.17578125 93.125 54.5625 C85.93443172 51.09889663 78.69959864 49.08180827 70.9375 47.25 C69.06368727 46.79865349 67.18999685 46.34679896 65.31640625 45.89453125 C60.19393306 44.66323348 55.06722144 43.45071503 49.9375 42.25 C52.69384539 43.67580359 55.45764391 44.88618899 58.359375 45.984375 C59.21241211 46.30825195 60.06544922 46.63212891 60.94433594 46.96582031 C61.84958008 47.30709961 62.75482422 47.64837891 63.6875 48 C64.62110352 48.35416992 65.55470703 48.70833984 66.51660156 49.07324219 C71.56199527 50.9848724 76.61431949 52.87681867 81.67382812 54.75073242 C83.62934999 55.47836295 85.5809531 56.21552269 87.53125 56.95703125 C89.60718636 57.74503003 91.68923873 58.51744551 93.78125 59.26171875 C97.72768971 60.78007299 100.23988077 62.07107275 102.5625 65.6875 C103.9375 69.25 103.9375 69.25 104.0625 71.875 C102.44529449 75.28910052 99.88771488 76.94883239 96.9375 79.25 C95.1248495 81.41220617 95.1248495 81.41220617 93.9375 83.25 C90.76402872 82.5216851 87.76766043 81.51291698 84.7109375 80.39453125 C83.68814697 80.02223389 82.66535645 79.64993652 81.61157227 79.26635742 C80.52287842 78.86908447 79.43418457 78.47181152 78.3125 78.0625 C61.94401778 72.14908191 46.0228596 66.68322829 28.9375 63.25 C29.36192383 62.79254395 29.78634766 62.33508789 30.22363281 61.86376953 C30.77374023 61.25130371 31.32384766 60.63883789 31.890625 60.0078125 C32.43879883 59.40598145 32.98697266 58.80415039 33.55175781 58.18408203 C35.09446808 56.03091946 35.51283195 54.75059533 35.6875 52.125 C34.92011818 48.16019395 34.11642221 46.72472019 30.93359375 44.2578125 C21.13016106 39.30813415 9.38157924 39.97242915 -0.8125 43.3125 C-5.65758737 45.06015625 -9.52437327 47.11427502 -13.6875 50.125 C-17.75822354 52.90811083 -20.0237433 53.57719299 -24.90625 52.953125 C-31.91493765 52.22010629 -38.85235116 52.09776417 -45.89111328 52.11962891 C-47.9287872 52.12497713 -49.96623903 52.11965049 -52.00390625 52.11328125 C-60.11540875 52.10891756 -60.11540875 52.10891756 -68.20898438 52.59350586 C-68.88107941 52.65253082 -69.55317444 52.71155579 -70.24563599 52.77236938 C-72.0943908 52.9460804 -73.94066471 53.14564072 -75.78662109 53.34692383 C-80.70500099 53.20140312 -83.58816409 50.97664648 -87.43359375 48.10546875 C-97.40764578 41.06583321 -110.27092848 40.32838895 -122.0625 41.25 C-126.05483375 42.38646079 -128.90709131 44.30466562 -132.125 46.9375 C-133.64637741 50.69023095 -133.39533532 54.45013778 -132.0625 58.25 C-129.59517963 61.01491361 -129.59517963 61.01491361 -127.0625 63.25 C-127.66795654 63.37938965 -128.27341309 63.5087793 -128.8972168 63.64208984 C-142.05007577 66.50381002 -154.85724292 69.95347947 -167.5625 74.375 C-168.77123779 74.79442871 -169.97997559 75.21385742 -171.2253418 75.64599609 C-177.06079095 77.71199549 -182.69196826 79.85968441 -188.17773438 82.74169922 C-190.0625 83.25 -190.0625 83.25 -192.14648438 82.53564453 C-195.02361722 80.60509133 -196.88932309 77.92467927 -199.0625 75.25 C-200.0525 74.59 -201.0425 73.93 -202.0625 73.25 C-201.52121375 68.64906685 -200.07216632 65.77351179 -197.0625 62.25 C-182.46258353 52.44500346 -162.52366602 47.86986585 -146.0625 42.25 C-154.46054527 43.6666151 -162.72709793 45.48221901 -171 47.5 C-172.18529297 47.77457031 -173.37058594 48.04914063 -174.59179688 48.33203125 C-181.86245164 50.1108091 -187.97975416 52.46337351 -194.44360352 56.26464844 C-197.0625 57.25 -197.0625 57.25 -199.73486328 56.52294922 C-202.42396958 55.05231777 -204.88750838 53.41599397 -207.375 51.625 C-208.25800781 50.99335938 -209.14101562 50.36171875 -210.05078125 49.7109375 C-210.71464844 49.22882813 -211.37851563 48.74671875 -212.0625 48.25 C-211.77054765 41.94382922 -210.93828094 36.39095077 -207.0625 31.25 C-201.99438691 27.84958473 -195.89866071 25.99112721 -190.1484375 24.078125 C-189.30882477 23.79450607 -188.46921204 23.51088715 -187.60415649 23.21867371 C-184.88461172 22.30420306 -182.16163582 21.40069634 -179.4375 20.5 C-178.50276855 20.18974884 -177.56803711 19.87949768 -176.60498047 19.55984497 C-151.8415105 11.36289322 -126.87907916 4.28188706 -101.0625 0.25 C-100.0209375 0.08628906 -98.979375 -0.07742187 -97.90625 -0.24609375 C-65.78824424 -5.00869019 -32.07137407 -4.74916583 0 0 Z " fill="#FCFCFC" transform="translate(299.0625,188.75)"/>
<path d="M0 0 C1.17949219 0.42539062 2.35898438 0.85078125 3.57421875 1.2890625 C9.24748001 3.35309475 14.8705028 5.53582416 20.46484375 7.8046875 C53.74412664 21.24508918 79.34428161 17.42232775 111.9765625 4.27832031 C123.13216326 -0.20464078 133.02351983 -3.53111201 145.125 -3.4375 C146.04925781 -3.45748047 146.97351563 -3.47746094 147.92578125 -3.49804688 C155.56446575 -3.49265993 161.52434441 -1.64811855 167.625 3 C169 5 169 5 169.0625 7 C165.29879324 14.08462449 156.07302241 15.79715362 149 18 C142.02920662 20.10181986 135.027295 22.0958761 128 24 C127.25073242 24.20447754 126.50146484 24.40895508 125.72949219 24.61962891 C122.33357021 25.51374706 119.54039686 26 116 26 C116 26.99 116 27.98 116 29 C116.86165771 28.79842285 117.72331543 28.5968457 118.61108398 28.38916016 C121.84829678 27.63209286 125.08561328 26.87547205 128.32299805 26.11914062 C129.7165937 25.7934695 131.11014936 25.46762723 132.50366211 25.14160156 C135.8257617 24.36441859 139.14836616 23.58961985 142.47241211 22.82080078 C144.56158888 22.33469017 146.6491122 21.84121601 148.73266602 21.33154297 C153.26009977 20.24765177 157.37277509 19.77626895 162.0625 19.875 C163.75052734 19.90207031 163.75052734 19.90207031 165.47265625 19.9296875 C166.30667969 19.95289063 167.14070312 19.97609375 168 20 C168.68359375 22.2578125 168.68359375 22.2578125 169 25 C167.20073897 28.11058687 164.54686531 30.48207634 162 33 C161.443125 33.59039062 160.88625 34.18078125 160.3125 34.7890625 C147.82820779 46.99468748 128.52450439 51.95942265 112.125 56.1875 C111.16916016 56.43773926 110.21332031 56.68797852 109.22851562 56.94580078 C94.56373378 60.58737438 80.12954935 61.35061298 65.09277344 61.31567383 C62.2671829 61.31251918 59.44264935 61.33605697 56.6171875 61.36132812 C23.78976551 61.47463935 -15.55361551 54.83560255 -39.9375 31.25 C-40.618125 30.5075 -41.29875 29.765 -42 29 C-42.61875 28.34 -43.2375 27.68 -43.875 27 C-45.38178702 24.32126751 -44.69831638 22.90805727 -44 20 C-35.25785668 19.60209395 -27.58576837 20.67182367 -19.125 22.8125 C-16.84914126 23.36403664 -14.57310079 23.91482394 -12.296875 24.46484375 C-11.21599609 24.73022949 -10.13511719 24.99561523 -9.02148438 25.26904297 C-3.37399676 26.6352823 2.31083728 27.82079173 8 29 C8 28.01 8 27.02 8 26 C6.81857422 25.85304688 6.81857422 25.85304688 5.61328125 25.703125 C-1.32975567 24.74999804 -7.80359197 23.31533912 -14.4609375 21.13671875 C-17.08561217 20.2936941 -19.69795065 19.5090909 -22.3515625 18.76953125 C-23.10147461 18.55852783 -23.85138672 18.34752441 -24.62402344 18.13012695 C-26.08114989 17.72222637 -27.54005358 17.3206005 -29.00097656 16.92651367 C-34.55170744 15.3514311 -41.67016206 12.99475691 -45 8 C-44.72241109 5.30738758 -44.23051563 4.22069546 -42.2578125 2.33203125 C-41.20207031 1.57986328 -41.20207031 1.57986328 -40.125 0.8125 C-39.42632812 0.30332031 -38.72765625 -0.20585937 -38.0078125 -0.73046875 C-28.552577 -6.70897369 -9.87273367 -3.8450178 0 0 Z " fill="#FCFCFC" transform="translate(188,344)"/>
<path d="M0 0 C4.18230989 3.41467073 7.38604169 7.03366642 8.125 12.546875 C8.11726563 13.56652344 8.10953125 14.58617187 8.1015625 15.63671875 C8.11316406 17.17005859 8.11316406 17.17005859 8.125 18.734375 C7.67556369 21.93771025 7.02051933 23.31717617 4.7265625 25.57421875 C0.3811594 26.41280531 -1.8685417 26.43594929 -5.66796875 24.10546875 C-7.35295079 22.85300966 -9.03381064 21.59498959 -10.7109375 20.33203125 C-17.93590117 15.37588239 -26.72751709 14.45675718 -35.2734375 15.57421875 C-49.00188559 19.30928625 -60.11408928 26.8678351 -70.2734375 36.57421875 C-72.05947811 38.20540034 -73.85106484 39.83053226 -75.6484375 41.44921875 C-76.43992187 42.16851562 -77.23140625 42.8878125 -78.046875 43.62890625 C-83.65924089 48.53234171 -83.65924089 48.53234171 -87.0234375 48.76171875 C-88.1371875 48.66890625 -88.1371875 48.66890625 -89.2734375 48.57421875 C-90.4124309 45.48266522 -90.60496294 43.36498846 -89.3203125 40.30078125 C-77.45127988 19.62779587 -55.21530772 2.16067227 -32.2734375 -4.23828125 C-21.21523364 -6.71463578 -9.86879675 -6.18919384 0 0 Z " fill="#060606" transform="translate(357.2734375,282.42578125)"/>
<path d="M0 0 C31.68491931 22.03965711 31.68491931 22.03965711 35.3984375 38.046875 C35.65625 40.84765625 35.65625 40.84765625 34.65625 42.84765625 C30.65092975 42.93287583 28.59551623 42.6309372 25.46875 40.0234375 C23.16138715 37.66399875 20.90779253 35.26030392 18.65625 32.84765625 C5.23464236 19.84114988 -11.12252789 9.35943376 -30.2890625 9.5703125 C-36.95992947 10.17597945 -41.9302263 13.57769088 -47.46875 17.09765625 C-51.57924388 19.61637256 -54.43246926 20.84995844 -59.34375 19.84765625 C-62.36044085 16.78827638 -62.8241216 14.32453137 -62.90625 10.09765625 C-62.75561181 4.72052768 -61.74014939 1.55643415 -58.18359375 -2.46875 C-41.50274179 -17.73296909 -17.25763462 -10.95411548 0 0 Z " fill="#050505" transform="translate(197.34375,288.15234375)"/>
<path d="M0 0 C3.03487408 1.55240103 5.72965336 2.93977072 7.8125 5.6875 C7.8125 7.0075 7.8125 8.3275 7.8125 9.6875 C4.09689565 9.32500201 1.43722191 8.59447951 -1.6875 6.625 C-5.08481584 4.60738011 -7.17192721 3.9646969 -11.1875 4.6875 C-13.5535007 5.88290945 -15.79785968 7.17825348 -18.0390625 8.59375 C-20.1875 9.6875 -20.1875 9.6875 -24.1875 9.6875 C-23.87576807 6.52718324 -23.62947236 5.08545121 -21.2265625 2.921875 C-20.42992187 2.43203125 -19.63328125 1.9421875 -18.8125 1.4375 C-18.02101562 0.93734375 -17.22953125 0.4371875 -16.4140625 -0.078125 C-10.43592976 -3.39231789 -5.99337724 -2.90932161 0 0 Z " fill="#0F0F0F" transform="translate(258.1875,334.3125)"/>
<path d="M0 0 C4.875 1.875 4.875 1.875 6 3 C6.07439356 9.66566299 3.97955572 15.13789736 1 21 C-1.86724686 20.42655063 -2.8614515 20.1385485 -5 18 C-4.54581717 13.94119158 -3.1545765 10.07429271 -1.9375 6.1875 C-1.57527344 5.02605469 -1.21304688 3.86460937 -0.83984375 2.66796875 C-0.56269531 1.78753906 -0.28554687 0.90710938 0 0 Z " fill="#EEEEEE" transform="translate(106,326)"/>
<path d="M0 0 C0.867242 2.41267325 1.71896936 4.82904469 2.5625 7.25 C2.80935547 7.93191406 3.05621094 8.61382812 3.31054688 9.31640625 C5.53297448 15.76457648 5.53297448 15.76457648 4 19 C3.34 19.66 2.68 20.32 2 21 C1.01 21 0.02 21 -1 21 C-3.88459076 15.32473539 -6.60736429 9.5190434 -6 3 C-3.99177618 0.71477979 -3.04235328 0 0 0 Z " fill="#F2F2F2" transform="translate(394,326)"/>
<path d="M0 0 C4.48528865 0.8404387 8.89057943 1.94417692 13.3125 3.0625 C14.05306641 3.24876953 14.79363281 3.43503906 15.55664062 3.62695312 C17.37136441 4.08356105 19.18571971 4.54163306 21 5 C21 5.99 21 6.98 21 8 C13.23216563 7.20736384 5.6370361 5.58110513 -2 4 C-1.34 2.68 -0.68 1.36 0 0 Z " fill="#242424" transform="translate(175,365)"/>
<path d="M0 0 C0.33 1.32 0.66 2.64 1 4 C-2.10311638 4.67161995 -5.20765168 5.33643675 -8.3125 6 C-9.19357422 6.19078125 -10.07464844 6.3815625 -10.98242188 6.578125 C-11.82998047 6.75859375 -12.67753906 6.9390625 -13.55078125 7.125 C-14.33106689 7.29257812 -15.11135254 7.46015625 -15.9152832 7.6328125 C-18 8 -18 8 -21 8 C-21 7.01 -21 6.02 -21 5 C-17.87605609 4.16267257 -14.75068026 3.33082018 -11.625 2.5 C-10.73554688 2.26152344 -9.84609375 2.02304687 -8.9296875 1.77734375 C-8.07890625 1.55175781 -7.228125 1.32617188 -6.3515625 1.09375 C-5.56604004 0.88427734 -4.78051758 0.67480469 -3.97119141 0.45898438 C-2 0 -2 0 0 0 Z " fill="#252525" transform="translate(325,365)"/>
<path d="M0 0 C8.13420754 1.22590007 16.05047454 2.8857645 24 5 C23.67 6.32 23.34 7.64 23 9 C17.45792197 7.38151704 11.93678471 5.69595391 6.4375 3.9375 C4.91962891 3.45603516 4.91962891 3.45603516 3.37109375 2.96484375 C1 2 1 2 0 0 Z " fill="#1D1D1D" transform="translate(346,230)"/>
<path d="M0 0 C0.8353125 0.37125 0.8353125 0.37125 1.6875 0.75 C1.5 2.5625 1.5 2.5625 0.6875 4.75 C-2.68537736 7.37334906 -5.06901873 8.11372697 -9.3125 7.75 C-7.69865111 3.642021 -4.79776509 -0.51867731 0 0 Z " fill="#171717" transform="translate(369.3125,323.25)"/>
<path d="M0 0 C-0.25589786 3.45462112 -1.28626163 4.27381547 -3.875 6.75 C-7 9 -7 9 -10 9 C-9.74410214 5.54537888 -8.71373837 4.72618453 -6.125 2.25 C-3 0 -3 0 0 0 Z " fill="#131313" transform="translate(156,321)"/>
<path d="M0 0 C-0.0625 1.75 -0.0625 1.75 -1 4 C-4.2161819 6.44727466 -6.92394904 8 -11 8 C-11 7.01 -11 6.02 -11 5 C-9.609375 3.61328125 -9.609375 3.61328125 -7.75 2.3125 C-7.14671875 1.87550781 -6.5434375 1.43851562 -5.921875 0.98828125 C-4 0 -4 0 0 0 Z " fill="#0E0E0E" transform="translate(364,320)"/>
<path d="M0 0 C-0.33 0.66 -0.66 1.32 -1 2 C-7.57139033 3.90100934 -14.20694776 4.22272302 -21 4 C-20.67 3.34 -20.34 2.68 -20 2 C-13.43020944 0.29711029 -6.76100758 -0.26003875 0 0 Z " fill="#3F3F3F" transform="translate(232,215)"/>
<path d="M0 0 C-0.17298401 2.33528415 -0.70225369 3.69177582 -2.33203125 5.37890625 C-6.57211538 9 -6.57211538 9 -9 9 C-8.70460812 5.45529741 -8.22373481 4.21784705 -5.625 1.6875 C-3 0 -3 0 0 0 Z " fill="#121212" transform="translate(148,321)"/>
<path d="M0 0 C-1.45226142 3.82868919 -3.33318013 5.2538953 -7 7 C-8.32 7 -9.64 7 -11 7 C-8.96914893 1.64593808 -5.57872788 0 0 0 Z " fill="#0D0D0D" transform="translate(357,319)"/>
<path d="M0 0 C7.22124213 0.41830366 14.04567778 0.95461111 21 3 C21 3.33 21 3.66 21 4 C14.20694776 4.22272302 7.57139033 3.90100934 1 2 C0.67 1.34 0.34 0.68 0 0 Z " fill="#2E2E2E" transform="translate(268,215)"/>
<path d="M0 0 C-11.23322524 4.77301073 -11.23322524 4.77301073 -16 5 C-18.1640625 4.0078125 -18.1640625 4.0078125 -20 3 C-17.41932437 2.30081695 -14.83627153 1.61538951 -12.25 0.9375 C-11.15558594 0.63875977 -11.15558594 0.63875977 -10.0390625 0.33398438 C-6.28968956 -0.63744407 -3.69725762 -1.15449387 0 0 Z " fill="#3C3C3C" transform="translate(154,231)"/>
<path d="M0 0 C1.91789713 0.28346278 3.83429183 0.5771028 5.75 0.875 C7.35101563 1.11863281 7.35101563 1.11863281 8.984375 1.3671875 C11.67708871 1.93223882 13.63572439 2.63422914 16 4 C9.89046896 5.92932559 5.51806129 3.54092546 0 1 C0 0.67 0 0.34 0 0 Z " fill="#404040" transform="translate(346,230)"/>
<path d="M0 0 C0.99 0 1.98 0 3 0 C2.61402985 2.79828356 2.19863427 3.8205884 0.0625 5.75 C-2 7 -2 7 -4 7 C-2.92598892 4.08482708 -2.22189824 2.22189824 0 0 Z " fill="#111111" transform="translate(160,322)"/>
<path d="M0 0 C0.33 1.32 0.66 2.64 1 4 C-1.31 4 -3.62 4 -6 4 C-5.67 3.01 -5.34 2.02 -5 1 C-2 0 -2 0 0 0 Z " fill="#1B1B1B" transform="translate(325,365)"/>
</svg>
